<svg xmlns="http://www.w3.org/2000/svg" viewBox="0 0 756.41 206.03"><defs><style>.cls-1{fill:#fff;}</style></defs><g id="Layer_2" data-name="Layer 2"><g id="Layer_1-2" data-name="Layer 1"><path class="cls-1" d="M323.42,25.54V84.9H309V60.46h-22.5V84.9H272V25.54h14.45V48.8H309V25.54Z"/><path class="cls-1" d="M342.83,82.62a21.68,21.68,0,0,1-8.71-8.46A25.3,25.3,0,0,1,331,61.31a25.07,25.07,0,0,1,3.21-12.81A21.78,21.78,0,0,1,343,40a27.94,27.94,0,0,1,25,0,21.78,21.78,0,0,1,8.79,8.5A25,25,0,0,1,380,61.31a24.8,24.8,0,0,1-3.26,12.81,22.07,22.07,0,0,1-8.88,8.5,26.56,26.56,0,0,1-12.55,2.95A26.06,26.06,0,0,1,342.83,82.62ZM362.36,70c1.94-2,2.92-4.93,2.92-8.71s-.95-6.68-2.84-8.71a9.61,9.61,0,0,0-14,0q-2.79,3-2.79,8.75T348.41,70a8.89,8.89,0,0,0,6.89,3A9.42,9.42,0,0,0,362.36,70Z"/><path class="cls-1" d="M408.48,39.45a16.41,16.41,0,0,1,8.46-2.24v15.3h-4q-5.41,0-8.11,2.33T402.14,63V84.9H387.68V37.72h14.46v7.86A19.12,19.12,0,0,1,408.48,39.45Z"/><path class="cls-1" d="M432.07,83.46a18.81,18.81,0,0,1-7.61-5.79,15.27,15.27,0,0,1-3.13-8.24h14.29a5.51,5.51,0,0,0,2.28,4,8.13,8.13,0,0,0,5,1.52,7.09,7.09,0,0,0,4.19-1.06,3.24,3.24,0,0,0,1.48-2.74,3.18,3.18,0,0,0-2.12-3A43.53,43.53,0,0,0,439.6,66a64.57,64.57,0,0,1-8.46-2.49,14.66,14.66,0,0,1-5.83-4.15,11.27,11.27,0,0,1-2.46-7.65,13,13,0,0,1,2.25-7.4A15.06,15.06,0,0,1,431.69,39a25.2,25.2,0,0,1,10.36-2q8.88,0,14,4.4a17.12,17.12,0,0,1,5.88,11.67H448.56a5.78,5.78,0,0,0-2.16-3.89,7.45,7.45,0,0,0-4.77-1.44,6.65,6.65,0,0,0-3.89,1,3.1,3.1,0,0,0-1.36,2.67,3.25,3.25,0,0,0,2.16,3,34.64,34.64,0,0,0,6.72,2,73.75,73.75,0,0,1,8.54,2.66,14.81,14.81,0,0,1,5.79,4.23,12,12,0,0,1,2.58,7.82,12.42,12.42,0,0,1-2.32,7.4,15.4,15.4,0,0,1-6.68,5.12,25.79,25.79,0,0,1-10.11,1.85A27.1,27.1,0,0,1,432.07,83.46Z"/><path class="cls-1" d="M515.27,64.78H482.55a9.82,9.82,0,0,0,2.83,6.72,8.65,8.65,0,0,0,6.13,2.32q5.42,0,7.53-4.56h15.38a21.24,21.24,0,0,1-12,14.2A24.85,24.85,0,0,1,492,85.57a25.37,25.37,0,0,1-12.35-2.95,21.11,21.11,0,0,1-8.45-8.46,26.09,26.09,0,0,1-3.05-12.85,26.27,26.27,0,0,1,3-12.85A20.71,20.71,0,0,1,479.59,40,25.52,25.52,0,0,1,492,37a25.18,25.18,0,0,1,12.17,2.88,20.61,20.61,0,0,1,8.33,8.2,24.89,24.89,0,0,1,3,12.43A36.81,36.81,0,0,1,515.27,64.78Zm-14.54-8a7.45,7.45,0,0,0-2.54-5.92,9.35,9.35,0,0,0-6.34-2.19,9.13,9.13,0,0,0-6.13,2.11,9.43,9.43,0,0,0-3.09,6Z"/><path class="cls-1" d="M565.11,42.58q4.95,5.37,4.95,14.75V84.9H555.68V59.28c0-3.16-.81-5.61-2.45-7.36a9.61,9.61,0,0,0-13.19,0q-2.44,2.63-2.45,7.36V84.9H523.13V37.72h14.46V44A15.25,15.25,0,0,1,543.51,39a18.84,18.84,0,0,1,8.37-1.82Q560.16,37.21,565.11,42.58Z"/><path class="cls-1" d="M588.32,83.46a18.81,18.81,0,0,1-7.61-5.79,15.27,15.27,0,0,1-3.13-8.24h14.29a5.49,5.49,0,0,0,2.29,4,8.08,8.08,0,0,0,5,1.52,7.09,7.09,0,0,0,4.19-1.06,3.22,3.22,0,0,0,1.48-2.74,3.18,3.18,0,0,0-2.11-3A44.09,44.09,0,0,0,595.85,66a65.51,65.51,0,0,1-8.46-2.49,14.66,14.66,0,0,1-5.83-4.15,11.27,11.27,0,0,1-2.45-7.65,13,13,0,0,1,2.24-7.4A15.06,15.06,0,0,1,587.94,39a25.2,25.2,0,0,1,10.36-2q8.88,0,14,4.4a17.12,17.12,0,0,1,5.88,11.67H604.81a5.78,5.78,0,0,0-2.16-3.89,7.45,7.45,0,0,0-4.77-1.44,6.65,6.65,0,0,0-3.89,1,3.1,3.1,0,0,0-1.36,2.67,3.25,3.25,0,0,0,2.16,3,34.64,34.64,0,0,0,6.72,2,73.75,73.75,0,0,1,8.54,2.66,14.81,14.81,0,0,1,5.79,4.23,11.88,11.88,0,0,1,2.58,7.82,12.42,12.42,0,0,1-2.32,7.4,15.4,15.4,0,0,1-6.68,5.12,25.76,25.76,0,0,1-10.11,1.85A27.1,27.1,0,0,1,588.32,83.46Z"/><path class="cls-1" d="M353.69,105.68,338.22,165h-17.5L311.25,126,301.44,165h-17.5l-15.05-59.35h15.47l8.54,43.2,10.57-43.2h15.9l10.14,43.2,8.63-43.2Z"/><path class="cls-1" d="M405.18,144.91H372.46a9.82,9.82,0,0,0,2.84,6.72,8.64,8.64,0,0,0,6.13,2.33q5.4,0,7.52-4.57h15.39a21.23,21.23,0,0,1-12,14.2,24.82,24.82,0,0,1-10.4,2.12,25.31,25.31,0,0,1-12.34-3,21,21,0,0,1-8.46-8.46,26.06,26.06,0,0,1-3-12.85,26.43,26.43,0,0,1,3-12.85,20.89,20.89,0,0,1,8.41-8.46,25.52,25.52,0,0,1,12.43-2.95,25.19,25.19,0,0,1,12.18,2.87,20.73,20.73,0,0,1,8.33,8.2,24.92,24.92,0,0,1,3,12.43A36.89,36.89,0,0,1,405.18,144.91Zm-14.54-8A7.4,7.4,0,0,0,388.1,131a9.3,9.3,0,0,0-6.34-2.2,9.17,9.17,0,0,0-6.13,2.11,9.38,9.38,0,0,0-3.08,6Z"/><path class="cls-1" d="M433.34,119.2a18.26,18.26,0,0,1,8.71-2,19.56,19.56,0,0,1,10.57,2.95,20.61,20.61,0,0,1,7.48,8.46,31.12,31.12,0,0,1,0,25.58,20.78,20.78,0,0,1-7.48,8.54,19.35,19.35,0,0,1-10.57,3,18.15,18.15,0,0,1-8.71-2,15.31,15.31,0,0,1-5.83-5.28V165H413.05V102.46h14.46v22.07A14.87,14.87,0,0,1,433.34,119.2Zm11.79,13.66a9.89,9.89,0,0,0-7.39-3.09,9.78,9.78,0,0,0-7.32,3.13q-3,3.14-3,8.54t3,8.54a10.12,10.12,0,0,0,14.67,0,11.86,11.86,0,0,0,3.05-8.58Q448.14,135.95,445.13,132.86Z"/><path class="cls-1" d="M470.33,128.59a20.54,20.54,0,0,1,7.48-8.46,19.56,19.56,0,0,1,10.57-2.95,18.54,18.54,0,0,1,8.5,1.94,15.47,15.47,0,0,1,6,5.24v-21.9h14.46V165H502.92v-6.76a14.7,14.7,0,0,1-5.79,5.41,18.18,18.18,0,0,1-8.75,2,19.35,19.35,0,0,1-10.57-3,20.71,20.71,0,0,1-7.48-8.54,31.12,31.12,0,0,1,0-25.58Zm29.59,4.31a10.15,10.15,0,0,0-14.62,0q-3,3.09-3,8.5t3,8.58a10.06,10.06,0,0,0,14.62,0q3-3.12,3-8.54T499.92,132.9Z"/><path class="cls-1" d="M572.09,144.91H539.37a9.77,9.77,0,0,0,2.83,6.72,8.64,8.64,0,0,0,6.13,2.33q5.4,0,7.52-4.57h15.39a21.23,21.23,0,0,1-12,14.2,24.8,24.8,0,0,1-10.39,2.12,25.34,25.34,0,0,1-12.35-3,20.92,20.92,0,0,1-8.45-8.46,26.06,26.06,0,0,1-3-12.85,26.43,26.43,0,0,1,3-12.85,20.85,20.85,0,0,1,8.42-8.46,25.49,25.49,0,0,1,12.43-2.95A25.18,25.18,0,0,1,561,120.05a20.67,20.67,0,0,1,8.33,8.2,24.92,24.92,0,0,1,3,12.43A36.81,36.81,0,0,1,572.09,144.91Zm-14.55-8A7.43,7.43,0,0,0,555,131a9.32,9.32,0,0,0-6.34-2.2,9.13,9.13,0,0,0-6.13,2.11,9.34,9.34,0,0,0-3.09,6Z"/><path class="cls-1" d="M588.15,163.59a18.73,18.73,0,0,1-7.61-5.79,15.27,15.27,0,0,1-3.13-8.24H591.7a5.49,5.49,0,0,0,2.28,4,8.07,8.07,0,0,0,5,1.52,7.17,7.17,0,0,0,4.19-1.05,3.26,3.26,0,0,0,1.48-2.75,3.18,3.18,0,0,0-2.12-3,42.27,42.27,0,0,0-6.84-2.16,64.57,64.57,0,0,1-8.46-2.49,14.73,14.73,0,0,1-5.83-4.14,11.28,11.28,0,0,1-2.46-7.66,13,13,0,0,1,2.25-7.4,15.13,15.13,0,0,1,6.59-5.28,25.21,25.21,0,0,1,10.36-1.94q8.88,0,14,4.39A17.12,17.12,0,0,1,618,133.24H604.64a5.8,5.8,0,0,0-2.16-3.89,7.45,7.45,0,0,0-4.77-1.44,6.57,6.57,0,0,0-3.89,1,3.07,3.07,0,0,0-1.36,2.66,3.24,3.24,0,0,0,2.16,3,34,34,0,0,0,6.72,2,71.64,71.64,0,0,1,8.54,2.67,14.68,14.68,0,0,1,5.79,4.22,12,12,0,0,1,2.58,7.82,12.4,12.4,0,0,1-2.32,7.4,15.4,15.4,0,0,1-6.68,5.12,25.61,25.61,0,0,1-10.11,1.86A27.1,27.1,0,0,1,588.15,163.59Z"/><path class="cls-1" d="M628.19,110.71a7.26,7.26,0,0,1-2.41-5.54,7.34,7.34,0,0,1,2.41-5.62,9.62,9.62,0,0,1,12.34,0,7.34,7.34,0,0,1,2.41,5.62,7.26,7.26,0,0,1-2.41,5.54,9.62,9.62,0,0,1-12.34,0Zm13.4,7.14V165H627.13V117.85Z"/><path class="cls-1" d="M678.75,119.2a15,15,0,0,1,5.79,5.33v-6.68H699V165a26.5,26.5,0,0,1-2.58,11.79,19.65,19.65,0,0,1-7.86,8.41q-5.29,3.14-13.15,3.13-10.49,0-17-4.94a18.68,18.68,0,0,1-7.44-13.4h14.29a6.87,6.87,0,0,0,3.21,4.27,11.77,11.77,0,0,0,6.26,1.56,9.85,9.85,0,0,0,7.15-2.58q2.65-2.58,2.66-8.24v-6.68a16.09,16.09,0,0,1-5.83,5.37,17.67,17.67,0,0,1-8.71,2.07,19.32,19.32,0,0,1-10.57-3,20.8,20.8,0,0,1-7.49-8.54,31.22,31.22,0,0,1,0-25.58,20.63,20.63,0,0,1,7.49-8.46A19.54,19.54,0,0,1,670,117.18,18.2,18.2,0,0,1,678.75,119.2Zm2.79,13.7a10.16,10.16,0,0,0-14.63,0q-3,3.09-3,8.5a12,12,0,0,0,3,8.58,10.07,10.07,0,0,0,14.63,0q3-3.12,3-8.54T681.54,132.9Z"/><path class="cls-1" d="M751.46,122.71q4.95,5.37,4.95,14.76V165H742V139.41c0-3.15-.81-5.61-2.45-7.35a9.61,9.61,0,0,0-13.19,0c-1.63,1.74-2.45,4.2-2.45,7.35V165H709.48V117.85h14.46v6.26a15.26,15.26,0,0,1,5.92-5,18.84,18.84,0,0,1,8.37-1.82Q746.51,117.34,751.46,122.71Z"/><path class="cls-1" d="M153.66,19.5,164,29.82c-23.68-23.67-48.31-3.56-55.37,3.51a27.18,27.18,0,0,0,0,38.46l6.32,6.31a3.52,3.52,0,0,1,0,5L90,108a3.52,3.52,0,0,1-5,0l-4.52-4.53C53.41,76.33,48.65,37.12,69,16.79,78.2,7.58,116.87-17.29,153.66,19.5Z"/><path class="cls-1" d="M31.32,54.46A27.33,27.33,0,0,0,29.57,91c.46.57,53.44,53.48,73.85,73.87a5.39,5.39,0,0,1-.4,8c-10.11,8.18-30.62,19.42-50.54-.09L12.19,132.45a41.63,41.63,0,0,1,0-58.83Z"/><path class="cls-1" d="M168.1,33.94l39.64,39.64a41.64,41.64,0,0,1,0,58.87l-19.23,19.23a27.36,27.36,0,0,0,1.86-36.6L117.49,42.21a6.33,6.33,0,0,1,.59-9.47C128.55,24.6,148.65,14.49,168.1,33.94Z"/><path class="cls-1" d="M66.27,186.53,56,176.21c23.67,23.68,48.3,3.56,55.36-3.5a27.18,27.18,0,0,0,0-38.46L105,127.93a3.51,3.51,0,0,1,0-5l24.92-24.92a3.51,3.51,0,0,1,5,0l4.53,4.53c27.12,27.12,31.87,66.33,11.54,86.66C141.74,198.46,103.06,223.32,66.27,186.53Z"/></g></g></svg>