<svg xmlns="http://www.w3.org/2000/svg" viewBox="0 0 219.93 206.03"><defs><style>.cls-1{fill:#fff;}</style></defs><g id="Layer_2" data-name="Layer 2"><g id="Layer_1-2" data-name="Layer 1"><path class="cls-1" d="M153.66,19.5,164,29.82c-23.68-23.67-48.31-3.56-55.37,3.51a27.18,27.18,0,0,0,0,38.46l6.32,6.31a3.52,3.52,0,0,1,0,5L90,108a3.52,3.52,0,0,1-5,0l-4.52-4.53C53.41,76.33,48.65,37.12,69,16.79,78.2,7.58,116.87-17.29,153.66,19.5Z"/><path class="cls-1" d="M31.32,54.46A27.33,27.33,0,0,0,29.57,91c.46.57,53.44,53.48,73.85,73.87a5.39,5.39,0,0,1-.4,8c-10.11,8.18-30.62,19.42-50.54-.09L12.19,132.45a41.63,41.63,0,0,1,0-58.83Z"/><path class="cls-1" d="M168.1,33.94l39.64,39.64a41.64,41.64,0,0,1,0,58.87l-19.23,19.23a27.36,27.36,0,0,0,1.86-36.6L117.49,42.21a6.33,6.33,0,0,1,.59-9.47C128.55,24.6,148.65,14.49,168.1,33.94Z"/><path class="cls-1" d="M66.27,186.53,56,176.21c23.67,23.68,48.3,3.56,55.36-3.5a27.18,27.18,0,0,0,0-38.46L105,127.93a3.51,3.51,0,0,1,0-5l24.92-24.92a3.51,3.51,0,0,1,5,0l4.53,4.53c27.12,27.12,31.87,66.33,11.54,86.66C141.74,198.46,103.06,223.32,66.27,186.53Z"/></g></g></svg>